<svg xmlns="http://www.w3.org/2000/svg" viewBox="0 0 1000 736.74"><defs><style>.a{fill:#231f20;stroke:#231f20;stroke-miterlimit:10;stroke-width:0.5px;}</style></defs><path d="M631.34,545.09V532.33q0-50.67-29.39-80.71-29.33-29.87-79.51-29.92-62.25,0-95.67,47.29-23.14-47.25-84.19-47.29c-40.67,0-71.91,15.6-93.38,46.74v-38.1H139.66V612.68A301.83,301.83,0,0,1,68,417.29q0-3.5.07-7h835.2v-2.57H465.87l-121-182.34,96.4-102.73,0,0,2.09-2.19,0,0A298.58,298.58,0,0,0,398.86,113c-9.19-.81-18.54-1.27-27.92-1.27s-18.72.46-27.91,1.27c-.07,0-.16,0-.24,0-7.46.64-14.89,1.65-22.16,2.83h0A301.43,301.43,0,0,0,251,136.32h0V0h-113V220A303.8,303.8,0,0,0,65.55,407.74H0v2.57H65.45q-.08,3.48-.07,7a306.25,306.25,0,0,0,188.4,282.07,306.54,306.54,0,0,0,117.16,23.42,303.78,303.78,0,0,0,70.7-8.28h.1V562.37a92.38,92.38,0,0,1,1-14.66h72.65a95.29,95.29,0,0,1,.72,12.35l0,128.79v47.89H631.32V572s0,0,0,0V547.71H1000v-2.62ZM331.23,407.74h-80.3V321.08l19.55-19.58ZM250.93,181V139.18h0a299.47,299.47,0,0,1,66.92-20.11l-46.74,55.57c-7.34,8.9-14.61,18.61-21.95,29.36ZM137.9,224v183.7H68.21A301.56,301.56,0,0,1,137.9,224ZM328.16,717.16a297.67,297.67,0,0,1-74.38-20.56V562.37A99.68,99.68,0,0,1,255,546.1q5.5-35.67,37.46-35.63,31.13,0,35.14,34.62H277.75v2.62h50.07c.2,2.64.34,5.42.34,8.32Zm115-172.07q5.79-32.85,36.54-32.87,30.12,0,35.29,32.87Z"/><path d="M631.32,572v4.95s0,0,0,0v-4.94S631.32,571.94,631.32,572Z"/><path d="M631.32,572v4.95s0,0,0,0v-4.94S631.32,571.94,631.32,572Z"/><path class="a" d="M507.82,226.68l-16.89,14.51L509,266.14h-6.07l-15.74-21.65-7.83,6.68v15h-4.6V211.48h4.6V246l22-19.27Z"/><path class="a" d="M533.16,226.06V231c-.21,0-.45,0-.73,0s-.47,0-.58,0a13.07,13.07,0,0,0-7.94,2.57,12.21,12.21,0,0,0-4.65,6.8,41.18,41.18,0,0,0-.92,9.75v16.12h-4.76V226.68h4.53v9.44q2.53-5.44,5.84-7.71C526.14,226.9,529.22,226.11,533.16,226.06Z"/><path class="a" d="M568.63,253.16A17.93,17.93,0,0,1,563,263.64a16.46,16.46,0,0,1-11.21,3.8q-8.22,0-13.17-5.6t-5-15q0-9.36,5-15.32a16.26,16.26,0,0,1,13-6q8.37,0,12.86,5.91T569,246.18v1.38H538.53a18.75,18.75,0,0,0,3.34,11.4q3.35,4.57,10,4.57,9.75,0,12.06-10.37Zm-4.45-9.52q-.39-6.6-3.77-10.32a11.45,11.45,0,0,0-8.9-3.72q-6,0-9.1,3.91a19.88,19.88,0,0,0-3.88,10.13Z"/><path class="a" d="M580.53,211.25v7.9h-4.84v-7.9Zm0,15.43v39.46h-4.84V226.68Z"/><path class="a" d="M479.19,291.46v6.91a19.16,19.16,0,0,1,5.6-6,13.54,13.54,0,0,1,7.52-2,12.47,12.47,0,0,1,7.26,2,10.11,10.11,0,0,1,4,5.64q4.06-7.68,13.13-7.68a13.44,13.44,0,0,1,9,3.11q3.64,3.11,3.65,9.25v28.18h-4.84V304.05q0-9.37-9.14-9.37-5.22,0-8.09,3.26t-2.89,8.79v24.19h-4.76V304.43q0-9.75-8.67-9.75-5.76,0-8.64,3.84a16.21,16.21,0,0,0-2.88,10v22.42h-4.83V291.46Z"/><path class="a" d="M573.15,327v3.69a11.52,11.52,0,0,1-3.83.61c-2.1,0-3.49-.64-4.15-1.92a11.56,11.56,0,0,1-1-5.3q-5,7.92-14.9,7.91c-4,0-7.2-1-9.48-2.92a10.1,10.1,0,0,1-3.42-8.13q0-10.68,14.67-12.21c.51-.05,1.22-.12,2.15-.19l2-.19,1.69-.2c.69-.07,1.2-.14,1.53-.19s.74-.13,1.23-.23a7.25,7.25,0,0,0,1.15-.31c.29-.1.58-.21.89-.34a7.31,7.31,0,0,0,.84-.42c.92-.62,1.38-1.87,1.38-3.77q0-4.68-2.61-6.6t-7.67-1.92q-5,0-7.64,2.27c-1.77,1.51-2.8,3.85-3.11,7H538.3q.32-6.36,4.45-9.82t11.44-3.46q6.76,0,10.64,2.92t3.87,8.44v21.5a21.64,21.64,0,0,0,.08,2.19,2.13,2.13,0,0,0,.65,1.23,2.61,2.61,0,0,0,1.88.57A6.67,6.67,0,0,0,573.15,327Zm-9.21-17.58a5,5,0,0,1-2.26,1.27,24.36,24.36,0,0,1-2.88.73c-.87.15-2.36.36-4.46.61q-.76.08-1.14.15a37,37,0,0,0-4,.7,22.17,22.17,0,0,0-3.61,1.26,6.87,6.87,0,0,0-3.07,2.46,7,7,0,0,0-1,3.88A6.76,6.76,0,0,0,543.9,326a10.08,10.08,0,0,0,6.61,2,14.17,14.17,0,0,0,9.52-3.34,11,11,0,0,0,3.91-8.79Z"/><path class="a" d="M598.57,290.84v4.92c-.21,0-.45,0-.73,0s-.47,0-.58,0a13.07,13.07,0,0,0-7.94,2.57,12.22,12.22,0,0,0-4.65,6.79,41.29,41.29,0,0,0-.92,9.75v16.13H579V291.46h4.53v9.44q2.54-5.44,5.84-7.72C591.55,291.67,594.63,290.89,598.57,290.84Z"/><path class="a" d="M635.8,291.46,618.91,306l18,24.95h-6.06l-15.74-21.65L607.32,316v15h-4.61V276.25h4.61v34.48l22-19.27Z"/><path class="a" d="M657.76,290.3q8.52,0,13.55,5.69t5,15.35q0,9.6-5,15.16t-13.59,5.57q-8.6,0-13.7-5.64T639,311.19q0-9.53,5.11-15.2T657.76,290.3Zm10,8.64a13.35,13.35,0,0,0-20.11,0q-3.78,4.57-3.77,12.25,0,7.83,3.73,12.36a12.53,12.53,0,0,0,10.25,4.53,12.2,12.2,0,0,0,10-4.53q3.67-4.53,3.68-12.29T667.74,298.94Z"/><path class="a" d="M688.16,291.46v7.44a17.74,17.74,0,0,1,5.73-6.45,15.11,15.11,0,0,1,8.25-2.07,14.27,14.27,0,0,1,9.9,3.38q3.76,3.38,3.76,10.29v26.87H711V305.58q0-11-10.06-11a11.52,11.52,0,0,0-9.06,3.8q-3.37,3.81-3.38,11.17v21.35h-4.84V291.46Z"/></svg>