<svg xmlns="http://www.w3.org/2000/svg" viewBox="0 0 1434.76 170.99"><path d="M127.13,46,84.21,91.71l50,75.29H79.28L54,122.67l-8,8V167H0V0H46V73.65L45.27,83q4.45-6.56,8.91-12L75.29,46Z"/><path d="M235.26,44.8V85.38q-9.85-3.28-17.13-3.29-14.07,0-21.46,7.86t-7.39,22.17V167h-46.2V46h44.33l-.24,18.77q6.57-11.26,15-16.66t21.11-5.39A37.8,37.8,0,0,1,235.26,44.8Z"/><path d="M369.19,130.65q-5.4,19.23-23.34,29.55a77.42,77.42,0,0,1-39.29,10.32q-29.55,0-49-16.65t-19.47-46q0-28.38,18.88-46.68t48-18.3q30.48,0,48.67,19t18.18,51.14v3.52H282.64q.47,11.49,6.68,17.82t17,6.33q12.89,0,19.46-10.08ZM326.5,93.35q-1.89-20.64-21.35-20.64-18.76,0-22.28,20.64Z"/><path d="M438.61,0V32.37H392.17V0Zm0,46V167H392.17V46Z"/><path d="M588.49,46V61.45q13.13-19,38-19t34.24,19.24q13.6-19.23,38.94-19.24,20.4,0,32.37,12.2t12,32.84V167H697.09V98.75q0-19.47-14.78-19.47-15.48,0-15.48,20.41V167H620.62V97.11q0-18.54-14.54-18.53-15.72,0-15.71,21.11V167H543.92V46Z"/><path d="M893.41,167H846.5a52.57,52.57,0,0,1-1.88-11.26Q829.38,171,805.92,171q-20.64,0-32.25-10.09T762.06,133a32.56,32.56,0,0,1,3.75-16,42.33,42.33,0,0,1,7.62-10.43Q777.3,103,786.69,100a123.86,123.86,0,0,1,13.37-3.64q4-.7,15.48-2.34a28,28,0,0,0,2.81-.47c.78-.16,2.66-.35,5.63-.59a67.28,67.28,0,0,0,6.92-.82,42.94,42.94,0,0,0,5.86-1.64,9.86,9.86,0,0,0,5-3.52,9.59,9.59,0,0,0,1.64-5.63q0-10.56-15.25-10.55-8.44,0-12.19,2.58T811.08,83H767.69q1.63-40.58,60.51-40.58,46.68,0,57.24,22.52,3.27,6.81,3.28,22,0,7.28-.24,21.46t-.23,24Q888.25,156.69,893.41,167Zm-49.73-55.12q-5.16,3.53-21.58,7-12.66,2.82-12.66,12.67A11.59,11.59,0,0,0,813,140.5q3.51,3.28,9.61,3.28,12.67,0,18.3-9.38,2.82-4.69,2.81-15.24Z"/><path d="M1004.35,44.8V85.38q-9.84-3.28-17.12-3.29-14.07,0-21.46,7.86t-7.39,22.17V167H912.17V46h44.34l-.24,18.77q6.57-11.26,15-16.66t21.11-5.39A37.75,37.75,0,0,1,1004.35,44.8Z"/><path d="M1143.68,46l-42.93,45.74,50,75.29h-54.88l-25.33-44.33-8,8V167h-46V0h46V73.65l-.7,9.38q4.44-6.56,8.91-12L1091.84,46Z"/><path d="M1221.78,42.45q29.33,0,47.62,17.6t18.29,46q0,28.62-18.53,46.56t-47.85,17.94q-29.55,0-48.08-17.83t-18.53-46.2q0-28.38,18.65-46.21T1221.78,42.45ZM1220.84,76q-19.69,0-19.7,30.49,0,30.74,20.17,30.73,19.93,0,19.94-31.2Q1241.25,76,1220.84,76Z"/><path d="M1352.66,46V61q14.77-18.28,38.47-18.29,23,0,33.3,13.13t10.33,34.72V167h-46.68V99.22q0-19.23-15.72-19.24-17.82,0-17.82,20.41V167h-46.45V46Z"/></svg>