<svg xmlns="http://www.w3.org/2000/svg" viewBox="0 0 999.86 999.86"><defs><style>.a{fill:#fff;}.b{fill:#231f20;}</style></defs><path class="a" d="M499.93,0C223.83,0,0,223.83,0,499.93S223.83,999.86,499.93,999.86,999.86,776,999.86,499.93,776,0,499.93,0ZM646.67,184.17h49.59v34.57H646.67Zm0,49.11h49.59V362.47H646.67ZM502.34,249.54Q522.49,230,553.55,230q32.52,0,51.94,20.27t19.41,54.61v3.74H529.76c.34,8.18,2.7,14.51,7.13,19s10.47,6.78,18.16,6.78q13.76,0,20.78-10.78h46.32q-5.79,20.52-24.92,31.56a82.57,82.57,0,0,1-42,11q-31.5,0-52.31-17.79t-20.78-49.08Q482.19,269.08,502.34,249.54ZM380.78,233.28H428.1l-.26,20q7-12,16-17.77t22.53-5.76A40.31,40.31,0,0,1,479.18,232v43.31c-7-2.33-13.11-3.52-18.27-3.52-10,0-17.66,2.81-22.91,8.37s-7.89,13.49-7.89,23.67v58.61H380.78ZM228.05,184.17h49.08v78.65l-.74,10c3.15-4.65,6.33-8.91,9.51-12.74l22.53-26.79h55.32l-45.81,48.81,53.33,80.38H312.69l-27.05-47.34-8.51,8.52v38.82H228.05Zm84.64,590.42-27.05-47.31-8.51,8.51v38.8H228.05V596.32h49.08V675l-.74,10c3.15-4.66,6.33-8.94,9.51-12.77l22.53-26.77h55.32l-45.81,48.82,53.33,80.35Zm185-15.38q-19.76,19.15-51.06,19.16-31.54,0-51.32-19T375.53,710q0-30.27,19.9-49.33t51.71-19q31.29,0,50.81,18.79t19.55,49.07Q517.5,740,497.69,759.21Zm16-285.19q-16.53,0-16.52,21.8v71.86H447.88V493.06c0-13.19-5.2-19.78-15.53-19.78q-16.77,0-16.77,22.54v71.86H366V438.48h47.57V455q14.06-20.31,40.56-20.26t36.56,20.52q14.52-20.52,41.58-20.52,21.75,0,34.54,13t12.77,35.05v84.89H529.51V494.82Q529.51,474,513.73,474ZM674.49,774.59H624.65V702.24q0-20.52-16.78-20.55-19,0-19,21.8v71.1H539.27V645.42h47.57v16q15.75-19.54,41-19.53,24.57,0,35.56,14t11,37.07ZM689,567.68a56.48,56.48,0,0,1-2-12q-16.26,16.3-41.29,16.29-22.06,0-34.43-10.79t-12.4-29.77a34.77,34.77,0,0,1,4-17A45.7,45.7,0,0,1,611,503.2c2.76-2.59,7.47-4.91,14.14-7a130.47,130.47,0,0,1,14.27-3.86q4.26-.78,16.55-2.53a28.2,28.2,0,0,0,3-.48c.82-.17,2.84-.4,6-.66a63.24,63.24,0,0,0,7.38-.85,45.69,45.69,0,0,0,6.27-1.76,10.88,10.88,0,0,0,5.39-3.74,10.27,10.27,0,0,0,1.74-6q0-11.28-16.27-11.27-9,0-13,2.75c-2.66,1.85-4.42,5.26-5.25,10.28H604.86q1.75-43.33,64.6-43.31,49.81,0,61.08,24,3.54,7.28,3.52,23.56,0,7.74-.25,22.9t-.26,25.66q0,25.8,5.51,36.81ZM839.22,477q-15,0-22.93,8.4t-7.87,23.67v58.58H759.09V438.48h47.32l-.26,20c4.69-8,10-13.93,16-17.79S835.7,435,844.72,435a40.57,40.57,0,0,1,12.78,2.24v43.32C850.46,478.22,844.38,477,839.22,477Z"/><path class="b" d="M371.27,362.47H312.69l-27.05-47.34-8.51,8.52v38.82H228.05V184.17h49.08v78.65l-.74,10c3.15-4.65,6.33-8.91,9.51-12.74l22.53-26.79h55.32l-45.81,48.81Z"/><path class="b" d="M479.18,232v43.31c-7-2.33-13.11-3.52-18.27-3.52-10,0-17.66,2.81-22.91,8.37s-7.89,13.49-7.89,23.67v58.61H380.78V233.28H428.1l-.26,20q7-12,16-17.77t22.53-5.76A40.31,40.31,0,0,1,479.18,232Z"/><path class="b" d="M624.9,304.89q0-34.32-19.41-54.61T553.55,230q-31,0-51.21,19.53t-20.15,49.81q0,31.33,20.78,49.08t52.31,17.79a82.57,82.57,0,0,0,42-11q19.15-11,24.92-31.56H575.83q-7,10.77-20.78,10.78-11.53,0-18.16-6.78c-4.43-4.51-6.79-10.84-7.13-19H624.9Zm-94.91-21q3.78-22.05,23.78-22.05,20.82,0,22.79,22.05Z"/><path class="a" d="M576.56,283.85H530q3.78-22.05,23.78-22.05Q574.59,261.8,576.56,283.85Z"/><rect class="b" x="646.67" y="184.17" width="49.59" height="34.57"/><rect class="b" x="646.67" y="233.28" width="49.59" height="129.2"/><path class="b" d="M371.27,774.59H312.69l-27.05-47.31-8.51,8.51v38.8H228.05V596.32h49.08V675l-.74,10c3.15-4.66,6.33-8.94,9.51-12.77l22.53-26.77h55.32l-45.81,48.82Z"/><path class="b" d="M498,660.44q-19.5-18.83-50.81-18.79-31.8,0-51.71,19T375.53,710q0,30.32,19.78,49.33t51.32,19q31.29,0,51.06-19.16t19.81-49.7Q517.5,679.2,498,660.44ZM446.63,742.8q-21.54,0-21.54-32.81,0-32.52,21-32.55,21.79,0,21.8,32.07Q467.92,742.8,446.63,742.8Z"/><path class="a" d="M467.92,709.51q0,33.29-21.29,33.29-21.54,0-21.54-32.81,0-32.52,21-32.55Q467.92,677.44,467.92,709.51Z"/><path class="b" d="M674.49,693v81.6H624.65V702.24q0-20.52-16.78-20.55-19,0-19,21.8v71.1H539.27V645.42h47.57v16q15.75-19.54,41-19.53,24.57,0,35.56,14T674.49,693Z"/><path class="b" d="M579.57,482.79v84.89H529.51V494.82q0-20.82-15.78-20.8-16.53,0-16.52,21.8v71.86H447.88V493.06c0-13.19-5.2-19.78-15.53-19.78q-16.77,0-16.77,22.54v71.86H366V438.48h47.57V455q14.06-20.31,40.56-20.26t36.56,20.52q14.52-20.52,41.58-20.52,21.75,0,34.54,13T579.57,482.79Z"/><path class="b" d="M733.55,530.87q0-10.51.26-25.66t.25-22.9q0-16.28-3.52-23.56-11.28-24-61.08-24-62.84,0-64.6,43.31h46.32c.83-5,2.59-8.43,5.25-10.28s7-2.75,13-2.75q16.26,0,16.27,11.27a10.27,10.27,0,0,1-1.74,6,10.88,10.88,0,0,1-5.39,3.74,45.69,45.69,0,0,1-6.27,1.76,63.24,63.24,0,0,1-7.38.85c-3.18.26-5.2.49-6,.66a28.2,28.2,0,0,1-3,.48q-12.3,1.74-16.55,2.53a130.47,130.47,0,0,0-14.27,3.86c-6.67,2.1-11.38,4.42-14.14,7a45.7,45.7,0,0,0-8.14,11.15,34.77,34.77,0,0,0-4,17q0,19,12.4,29.77t34.43,10.79q25,0,41.29-16.29a56.48,56.48,0,0,0,2,12h50.07Q733.56,556.66,733.55,530.87ZM686,516.59c0,7.52-1,12.95-3,16.29q-6,10-19.53,10c-4.34,0-7.74-1.16-10.27-3.52s-3.75-5.5-3.75-9.5q0-10.51,13.54-13.54,17.5-3.75,23-7.5Z"/><path class="a" d="M686,508.84v7.75c0,7.52-1,12.95-3,16.29q-6,10-19.53,10c-4.34,0-7.74-1.16-10.27-3.52s-3.75-5.5-3.75-9.5q0-10.51,13.54-13.54Q680.46,512.59,686,508.84Z"/><path class="b" d="M857.5,437.23v43.32c-7-2.33-13.12-3.52-18.28-3.52q-15,0-22.93,8.4t-7.87,23.67v58.58H759.09V438.48h47.32l-.26,20c4.69-8,10-13.93,16-17.79S835.7,435,844.72,435A40.57,40.57,0,0,1,857.5,437.23Z"/></svg>